<svg width="291" height="37" viewBox="0 0 291 37" fill="none" xmlns="http://www.w3.org/2000/svg">
<path d="M13.696 27L7.936 16.992H4.804V27H0.7V1.98H9.34C11.26 1.98 12.88 2.316 14.2 2.988C15.544 3.66 16.54 4.56 17.188 5.688C17.86 6.816 18.196 8.076 18.196 9.468C18.196 11.1 17.716 12.588 16.756 13.932C15.82 15.252 14.368 16.152 12.4 16.632L18.592 27H13.696ZM4.804 13.716H9.34C10.876 13.716 12.028 13.332 12.796 12.564C13.588 11.796 13.984 10.764 13.984 9.468C13.984 8.172 13.6 7.164 12.832 6.444C12.064 5.7 10.9 5.328 9.34 5.328H4.804V13.716ZM41.6261 16.596C41.6261 17.34 41.5781 18.012 41.4821 18.612H26.3261C26.4461 20.196 27.0341 21.468 28.0901 22.428C29.1461 23.388 30.4421 23.868 31.9781 23.868C34.1861 23.868 35.7461 22.944 36.6581 21.096H41.0861C40.4861 22.92 39.3941 24.42 37.8101 25.596C36.2501 26.748 34.3061 27.324 31.9781 27.324C30.0821 27.324 28.3781 26.904 26.8661 26.064C25.3781 25.2 24.2021 24 23.3381 22.464C22.4981 20.904 22.0781 19.104 22.0781 17.064C22.0781 15.024 22.4861 13.236 23.3021 11.7C24.1421 10.14 25.3061 8.94 26.7941 8.1C28.3061 7.26 30.0341 6.84 31.9781 6.84C33.8501 6.84 35.5181 7.248 36.9821 8.064C38.4461 8.88 39.5861 10.032 40.4021 11.52C41.2181 12.984 41.6261 14.676 41.6261 16.596ZM37.3421 15.3C37.3181 13.788 36.7781 12.576 35.7221 11.664C34.6661 10.752 33.3581 10.296 31.7981 10.296C30.3821 10.296 29.1701 10.752 28.1621 11.664C27.1541 12.552 26.5541 13.764 26.3621 15.3H37.3421ZM44.2968 16.992C44.2968 15 44.7048 13.236 45.5208 11.7C46.3608 10.164 47.4888 8.976 48.9048 8.136C50.3448 7.272 51.9288 6.84 53.6568 6.84C55.2168 6.84 56.5728 7.152 57.7248 7.776C58.9008 8.376 59.8368 9.132 60.5328 10.044V7.164H64.6728V27H60.5328V24.048C59.8368 24.984 58.8888 25.764 57.6888 26.388C56.4888 27.012 55.1208 27.324 53.5848 27.324C51.8808 27.324 50.3208 26.892 48.9048 26.028C47.4888 25.14 46.3608 23.916 45.5208 22.356C44.7048 20.772 44.2968 18.984 44.2968 16.992ZM60.5328 17.064C60.5328 15.696 60.2448 14.508 59.6688 13.5C59.1168 12.492 58.3848 11.724 57.4728 11.196C56.5608 10.668 55.5768 10.404 54.5208 10.404C53.4648 10.404 52.4808 10.668 51.5688 11.196C50.6568 11.7 49.9128 12.456 49.3368 13.464C48.7848 14.448 48.5088 15.624 48.5088 16.992C48.5088 18.36 48.7848 19.56 49.3368 20.592C49.9128 21.624 50.6568 22.416 51.5688 22.968C52.5048 23.496 53.4888 23.76 54.5208 23.76C55.5768 23.76 56.5608 23.496 57.4728 22.968C58.3848 22.44 59.1168 21.672 59.6688 20.664C60.2448 19.632 60.5328 18.432 60.5328 17.064ZM68.6953 17.064C68.6953 15.024 69.1033 13.236 69.9193 11.7C70.7593 10.14 71.9113 8.94 73.3753 8.1C74.8393 7.26 76.5193 6.84 78.4153 6.84C80.8153 6.84 82.7953 7.416 84.3553 8.568C85.9393 9.696 87.0073 11.316 87.5593 13.428H83.1313C82.7713 12.444 82.1953 11.676 81.4033 11.124C80.6113 10.572 79.6153 10.296 78.4153 10.296C76.7353 10.296 75.3913 10.896 74.3833 12.096C73.3993 13.272 72.9073 14.928 72.9073 17.064C72.9073 19.2 73.3993 20.868 74.3833 22.068C75.3913 23.268 76.7353 23.868 78.4153 23.868C80.7913 23.868 82.3633 22.824 83.1313 20.736H87.5593C86.9833 22.752 85.9033 24.36 84.3193 25.56C82.7353 26.736 80.7673 27.324 78.4153 27.324C76.5193 27.324 74.8393 26.904 73.3753 26.064C71.9113 25.2 70.7593 24 69.9193 22.464C69.1033 20.904 68.6953 19.104 68.6953 17.064ZM96.4372 10.512V21.492C96.4372 22.236 96.6052 22.776 96.9412 23.112C97.3012 23.424 97.9012 23.58 98.7412 23.58H101.261V27H98.0212C96.1732 27 94.7572 26.568 93.7732 25.704C92.7892 24.84 92.2972 23.436 92.2972 21.492V10.512H89.9572V7.164H92.2972V2.232H96.4372V7.164H101.261V10.512H96.4372ZM103.676 14.436C103.676 11.988 104.24 9.792 105.368 7.848C106.52 5.904 108.068 4.392 110.012 3.312C111.98 2.208 114.128 1.656 116.456 1.656C119.12 1.656 121.484 2.316 123.548 3.636C125.636 4.932 127.148 6.78 128.084 9.18H123.152C122.504 7.86 121.604 6.876 120.452 6.228C119.3 5.58 117.968 5.256 116.456 5.256C114.8 5.256 113.324 5.628 112.028 6.372C110.732 7.116 109.712 8.184 108.968 9.576C108.248 10.968 107.888 12.588 107.888 14.436C107.888 16.284 108.248 17.904 108.968 19.296C109.712 20.688 110.732 21.768 112.028 22.536C113.324 23.28 114.8 23.652 116.456 23.652C117.968 23.652 119.3 23.328 120.452 22.68C121.604 22.032 122.504 21.048 123.152 19.728H128.084C127.148 22.128 125.636 23.976 123.548 25.272C121.484 26.568 119.12 27.216 116.456 27.216C114.104 27.216 111.956 26.676 110.012 25.596C108.068 24.492 106.52 22.968 105.368 21.024C104.24 19.08 103.676 16.884 103.676 14.436ZM143.148 6.84C144.66 6.84 146.004 7.164 147.18 7.812C148.38 8.46 149.316 9.42 149.988 10.692C150.684 11.964 151.032 13.5 151.032 15.3V27H146.964V15.912C146.964 14.136 146.52 12.78 145.632 11.844C144.744 10.884 143.532 10.404 141.996 10.404C140.46 10.404 139.236 10.884 138.324 11.844C137.436 12.78 136.992 14.136 136.992 15.912V27H132.888V0.36H136.992V9.468C137.688 8.628 138.564 7.98 139.62 7.524C140.7 7.068 141.876 6.84 143.148 6.84ZM154.898 16.992C154.898 15 155.306 13.236 156.122 11.7C156.962 10.164 158.09 8.976 159.506 8.136C160.946 7.272 162.53 6.84 164.258 6.84C165.818 6.84 167.174 7.152 168.326 7.776C169.502 8.376 170.438 9.132 171.134 10.044V7.164H175.274V27H171.134V24.048C170.438 24.984 169.49 25.764 168.29 26.388C167.09 27.012 165.722 27.324 164.186 27.324C162.482 27.324 160.922 26.892 159.506 26.028C158.09 25.14 156.962 23.916 156.122 22.356C155.306 20.772 154.898 18.984 154.898 16.992ZM171.134 17.064C171.134 15.696 170.846 14.508 170.27 13.5C169.718 12.492 168.986 11.724 168.074 11.196C167.162 10.668 166.178 10.404 165.122 10.404C164.066 10.404 163.082 10.668 162.17 11.196C161.258 11.7 160.514 12.456 159.938 13.464C159.386 14.448 159.11 15.624 159.11 16.992C159.11 18.36 159.386 19.56 159.938 20.592C160.514 21.624 161.258 22.416 162.17 22.968C163.106 23.496 164.09 23.76 165.122 23.76C166.178 23.76 167.162 23.496 168.074 22.968C168.986 22.44 169.718 21.672 170.27 20.664C170.846 19.632 171.134 18.432 171.134 17.064ZM184.769 0.36V27H180.665V0.36H184.769ZM194.261 0.36V27H190.157V0.36H194.261ZM198.281 16.992C198.281 15 198.689 13.236 199.505 11.7C200.345 10.164 201.473 8.976 202.889 8.136C204.329 7.272 205.913 6.84 207.641 6.84C209.201 6.84 210.557 7.152 211.709 7.776C212.885 8.376 213.821 9.132 214.517 10.044V7.164H218.657V27H214.517V24.048C213.821 24.984 212.873 25.764 211.673 26.388C210.473 27.012 209.105 27.324 207.569 27.324C205.865 27.324 204.305 26.892 202.889 26.028C201.473 25.14 200.345 23.916 199.505 22.356C198.689 20.772 198.281 18.984 198.281 16.992ZM214.517 17.064C214.517 15.696 214.229 14.508 213.653 13.5C213.101 12.492 212.369 11.724 211.457 11.196C210.545 10.668 209.561 10.404 208.505 10.404C207.449 10.404 206.465 10.668 205.553 11.196C204.641 11.7 203.897 12.456 203.321 13.464C202.769 14.448 202.493 15.624 202.493 16.992C202.493 18.36 202.769 19.56 203.321 20.592C203.897 21.624 204.641 22.416 205.553 22.968C206.489 23.496 207.473 23.76 208.505 23.76C209.561 23.76 210.545 23.496 211.457 22.968C212.369 22.44 213.101 21.672 213.653 20.664C214.229 19.632 214.517 18.432 214.517 17.064ZM234.056 6.84C235.616 6.84 237.008 7.164 238.232 7.812C239.48 8.46 240.452 9.42 241.148 10.692C241.844 11.964 242.192 13.5 242.192 15.3V27H238.124V15.912C238.124 14.136 237.68 12.78 236.792 11.844C235.904 10.884 234.692 10.404 233.156 10.404C231.62 10.404 230.396 10.884 229.484 11.844C228.596 12.78 228.152 14.136 228.152 15.912V27H224.048V7.164H228.152V9.432C228.824 8.616 229.676 7.98 230.708 7.524C231.764 7.068 232.88 6.84 234.056 6.84ZM255.419 6.84C256.955 6.84 258.311 7.152 259.487 7.776C260.687 8.376 261.623 9.132 262.295 10.044V7.164H266.435V27.324C266.435 29.148 266.051 30.768 265.283 32.184C264.515 33.624 263.399 34.752 261.935 35.568C260.495 36.384 258.767 36.792 256.751 36.792C254.063 36.792 251.831 36.156 250.055 34.884C248.279 33.636 247.271 31.932 247.031 29.772H251.099C251.411 30.804 252.071 31.632 253.079 32.256C254.111 32.904 255.335 33.228 256.751 33.228C258.407 33.228 259.739 32.724 260.747 31.716C261.779 30.708 262.295 29.244 262.295 27.324V24.012C261.599 24.948 260.651 25.74 259.451 26.388C258.275 27.012 256.931 27.324 255.419 27.324C253.691 27.324 252.107 26.892 250.667 26.028C249.251 25.14 248.123 23.916 247.283 22.356C246.467 20.772 246.059 18.984 246.059 16.992C246.059 15 246.467 13.236 247.283 11.7C248.123 10.164 249.251 8.976 250.667 8.136C252.107 7.272 253.691 6.84 255.419 6.84ZM262.295 17.064C262.295 15.696 262.007 14.508 261.431 13.5C260.879 12.492 260.147 11.724 259.235 11.196C258.323 10.668 257.339 10.404 256.283 10.404C255.227 10.404 254.243 10.668 253.331 11.196C252.419 11.7 251.675 12.456 251.099 13.464C250.547 14.448 250.271 15.624 250.271 16.992C250.271 18.36 250.547 19.56 251.099 20.592C251.675 21.624 252.419 22.416 253.331 22.968C254.267 23.496 255.251 23.76 256.283 23.76C257.339 23.76 258.323 23.496 259.235 22.968C260.147 22.44 260.879 21.672 261.431 20.664C262.007 19.632 262.295 18.432 262.295 17.064ZM290.005 16.596C290.005 17.34 289.957 18.012 289.861 18.612H274.705C274.825 20.196 275.413 21.468 276.469 22.428C277.525 23.388 278.821 23.868 280.357 23.868C282.565 23.868 284.125 22.944 285.037 21.096H289.465C288.865 22.92 287.773 24.42 286.189 25.596C284.629 26.748 282.685 27.324 280.357 27.324C278.461 27.324 276.757 26.904 275.245 26.064C273.757 25.2 272.581 24 271.717 22.464C270.877 20.904 270.457 19.104 270.457 17.064C270.457 15.024 270.865 13.236 271.681 11.7C272.521 10.14 273.685 8.94 275.173 8.1C276.685 7.26 278.413 6.84 280.357 6.84C282.229 6.84 283.897 7.248 285.361 8.064C286.825 8.88 287.965 10.032 288.781 11.52C289.597 12.984 290.005 14.676 290.005 16.596ZM285.721 15.3C285.697 13.788 285.157 12.576 284.101 11.664C283.045 10.752 281.737 10.296 280.177 10.296C278.761 10.296 277.549 10.752 276.541 11.664C275.533 12.552 274.933 13.764 274.741 15.3H285.721Z" fill="black"/>
</svg>
