<svg width="193" height="25" viewBox="0 0 193 25" fill="none" xmlns="http://www.w3.org/2000/svg">
<path d="M9.464 18L5.624 11.328H3.536V18H0.8V1.32H6.56C7.84 1.32 8.92 1.544 9.8 1.992C10.696 2.44 11.36 3.04 11.792 3.792C12.24 4.544 12.464 5.384 12.464 6.312C12.464 7.4 12.144 8.392 11.504 9.288C10.88 10.168 9.912 10.768 8.6 11.088L12.728 18H9.464ZM3.536 9.144H6.56C7.584 9.144 8.352 8.888 8.864 8.376C9.392 7.864 9.656 7.176 9.656 6.312C9.656 5.448 9.4 4.776 8.888 4.296C8.376 3.8 7.6 3.552 6.56 3.552H3.536V9.144ZM28.0841 11.064C28.0841 11.56 28.0521 12.008 27.9881 12.408H17.8841C17.9641 13.464 18.3561 14.312 19.0601 14.952C19.7641 15.592 20.6281 15.912 21.6521 15.912C23.1241 15.912 24.1641 15.296 24.7721 14.064H27.7241C27.3241 15.28 26.5961 16.28 25.5401 17.064C24.5001 17.832 23.2041 18.216 21.6521 18.216C20.3881 18.216 19.2521 17.936 18.2441 17.376C17.2521 16.8 16.4681 16 15.8921 14.976C15.3321 13.936 15.0521 12.736 15.0521 11.376C15.0521 10.016 15.3241 8.824 15.8681 7.8C16.4281 6.76 17.2041 5.96 18.1961 5.4C19.2041 4.84 20.3561 4.56 21.6521 4.56C22.9001 4.56 24.0121 4.832 24.9881 5.376C25.9641 5.92 26.7241 6.688 27.2681 7.68C27.8121 8.656 28.0841 9.784 28.0841 11.064ZM25.2281 10.2C25.2121 9.192 24.8521 8.384 24.1481 7.776C23.4441 7.168 22.5721 6.864 21.5321 6.864C20.5881 6.864 19.7801 7.168 19.1081 7.776C18.4361 8.368 18.0361 9.176 17.9081 10.2H25.2281ZM29.8646 11.328C29.8646 10 30.1366 8.824 30.6806 7.8C31.2406 6.776 31.9926 5.984 32.9366 5.424C33.8966 4.848 34.9526 4.56 36.1046 4.56C37.1446 4.56 38.0486 4.768 38.8166 5.184C39.6006 5.584 40.2246 6.088 40.6886 6.696V4.776H43.4486V18H40.6886V16.032C40.2246 16.656 39.5926 17.176 38.7926 17.592C37.9926 18.008 37.0806 18.216 36.0566 18.216C34.9206 18.216 33.8806 17.928 32.9366 17.352C31.9926 16.76 31.2406 15.944 30.6806 14.904C30.1366 13.848 29.8646 12.656 29.8646 11.328ZM40.6886 11.376C40.6886 10.464 40.4966 9.672 40.1126 9C39.7446 8.328 39.2566 7.816 38.6486 7.464C38.0406 7.112 37.3846 6.936 36.6806 6.936C35.9766 6.936 35.3206 7.112 34.7126 7.464C34.1046 7.8 33.6086 8.304 33.2246 8.976C32.8566 9.632 32.6726 10.416 32.6726 11.328C32.6726 12.24 32.8566 13.04 33.2246 13.728C33.6086 14.416 34.1046 14.944 34.7126 15.312C35.3366 15.664 35.9926 15.84 36.6806 15.84C37.3846 15.84 38.0406 15.664 38.6486 15.312C39.2566 14.96 39.7446 14.448 40.1126 13.776C40.4966 13.088 40.6886 12.288 40.6886 11.376ZM46.1302 11.376C46.1302 10.016 46.4022 8.824 46.9462 7.8C47.5062 6.76 48.2742 5.96 49.2502 5.4C50.2262 4.84 51.3462 4.56 52.6102 4.56C54.2102 4.56 55.5302 4.944 56.5702 5.712C57.6262 6.464 58.3382 7.544 58.7062 8.952H55.7542C55.5142 8.296 55.1302 7.784 54.6022 7.416C54.0742 7.048 53.4102 6.864 52.6102 6.864C51.4902 6.864 50.5942 7.264 49.9222 8.064C49.2662 8.848 48.9382 9.952 48.9382 11.376C48.9382 12.8 49.2662 13.912 49.9222 14.712C50.5942 15.512 51.4902 15.912 52.6102 15.912C54.1942 15.912 55.2422 15.216 55.7542 13.824H58.7062C58.3222 15.168 57.6022 16.24 56.5462 17.04C55.4902 17.824 54.1782 18.216 52.6102 18.216C51.3462 18.216 50.2262 17.936 49.2502 17.376C48.2742 16.8 47.5062 16 46.9462 14.976C46.4022 13.936 46.1302 12.736 46.1302 11.376ZM64.6248 7.008V14.328C64.6248 14.824 64.7368 15.184 64.9608 15.408C65.2008 15.616 65.6008 15.72 66.1608 15.72H67.8408V18H65.6808C64.4488 18 63.5048 17.712 62.8488 17.136C62.1928 16.56 61.8648 15.624 61.8648 14.328V7.008H60.3048V4.776H61.8648V1.488H64.6248V4.776H67.8408V7.008H64.6248ZM69.4505 9.624C69.4505 7.992 69.8265 6.528 70.5785 5.232C71.3465 3.936 72.3785 2.928 73.6745 2.208C74.9865 1.472 76.4185 1.104 77.9705 1.104C79.7465 1.104 81.3225 1.544 82.6985 2.424C84.0905 3.288 85.0985 4.52 85.7225 6.12H82.4345C82.0025 5.24 81.4025 4.584 80.6345 4.152C79.8665 3.72 78.9785 3.504 77.9705 3.504C76.8665 3.504 75.8825 3.752 75.0185 4.248C74.1545 4.744 73.4745 5.456 72.9785 6.384C72.4985 7.312 72.2585 8.392 72.2585 9.624C72.2585 10.856 72.4985 11.936 72.9785 12.864C73.4745 13.792 74.1545 14.512 75.0185 15.024C75.8825 15.52 76.8665 15.768 77.9705 15.768C78.9785 15.768 79.8665 15.552 80.6345 15.12C81.4025 14.688 82.0025 14.032 82.4345 13.152H85.7225C85.0985 14.752 84.0905 15.984 82.6985 16.848C81.3225 17.712 79.7465 18.144 77.9705 18.144C76.4025 18.144 74.9705 17.784 73.6745 17.064C72.3785 16.328 71.3465 15.312 70.5785 14.016C69.8265 12.72 69.4505 11.256 69.4505 9.624ZM95.765 4.56C96.773 4.56 97.669 4.776 98.453 5.208C99.253 5.64 99.877 6.28 100.325 7.128C100.789 7.976 101.021 9 101.021 10.2V18H98.309V10.608C98.309 9.424 98.013 8.52 97.421 7.896C96.829 7.256 96.021 6.936 94.997 6.936C93.973 6.936 93.157 7.256 92.549 7.896C91.957 8.52 91.661 9.424 91.661 10.608V18H88.925V0.24H91.661V6.312C92.125 5.752 92.709 5.32 93.413 5.016C94.133 4.712 94.917 4.56 95.765 4.56ZM103.599 11.328C103.599 10 103.871 8.824 104.415 7.8C104.975 6.776 105.727 5.984 106.671 5.424C107.631 4.848 108.687 4.56 109.839 4.56C110.879 4.56 111.783 4.768 112.551 5.184C113.335 5.584 113.959 6.088 114.423 6.696V4.776H117.183V18H114.423V16.032C113.959 16.656 113.327 17.176 112.527 17.592C111.727 18.008 110.815 18.216 109.791 18.216C108.655 18.216 107.615 17.928 106.671 17.352C105.727 16.76 104.975 15.944 104.415 14.904C103.871 13.848 103.599 12.656 103.599 11.328ZM114.423 11.376C114.423 10.464 114.231 9.672 113.847 9C113.479 8.328 112.991 7.816 112.383 7.464C111.775 7.112 111.119 6.936 110.415 6.936C109.711 6.936 109.055 7.112 108.447 7.464C107.839 7.8 107.343 8.304 106.959 8.976C106.591 9.632 106.407 10.416 106.407 11.328C106.407 12.24 106.591 13.04 106.959 13.728C107.343 14.416 107.839 14.944 108.447 15.312C109.071 15.664 109.727 15.84 110.415 15.84C111.119 15.84 111.775 15.664 112.383 15.312C112.991 14.96 113.479 14.448 113.847 13.776C114.231 13.088 114.423 12.288 114.423 11.376ZM123.513 0.24V18H120.777V0.24H123.513ZM129.841 0.24V18H127.105V0.24H129.841ZM145.553 11.064C145.553 11.56 145.521 12.008 145.457 12.408H135.353C135.433 13.464 135.825 14.312 136.529 14.952C137.233 15.592 138.097 15.912 139.121 15.912C140.593 15.912 141.633 15.296 142.241 14.064H145.193C144.793 15.28 144.065 16.28 143.009 17.064C141.969 17.832 140.673 18.216 139.121 18.216C137.857 18.216 136.721 17.936 135.713 17.376C134.721 16.8 133.937 16 133.361 14.976C132.801 13.936 132.521 12.736 132.521 11.376C132.521 10.016 132.793 8.824 133.337 7.8C133.897 6.76 134.673 5.96 135.665 5.4C136.673 4.84 137.825 4.56 139.121 4.56C140.369 4.56 141.481 4.832 142.457 5.376C143.433 5.92 144.193 6.688 144.737 7.68C145.281 8.656 145.553 9.784 145.553 11.064ZM142.697 10.2C142.681 9.192 142.321 8.384 141.617 7.776C140.913 7.168 140.041 6.864 139.001 6.864C138.057 6.864 137.249 7.168 136.577 7.776C135.905 8.368 135.505 9.176 135.377 10.2H142.697ZM154.917 4.56C155.957 4.56 156.885 4.776 157.701 5.208C158.533 5.64 159.181 6.28 159.645 7.128C160.109 7.976 160.341 9 160.341 10.2V18H157.629V10.608C157.629 9.424 157.333 8.52 156.741 7.896C156.149 7.256 155.341 6.936 154.317 6.936C153.293 6.936 152.477 7.256 151.869 7.896C151.277 8.52 150.981 9.424 150.981 10.608V18H148.245V4.776H150.981V6.288C151.429 5.744 151.997 5.32 152.685 5.016C153.389 4.712 154.133 4.56 154.917 4.56ZM169.159 4.56C170.183 4.56 171.087 4.768 171.871 5.184C172.671 5.584 173.295 6.088 173.743 6.696V4.776H176.503V18.216C176.503 19.432 176.247 20.512 175.735 21.456C175.223 22.416 174.479 23.168 173.503 23.712C172.543 24.256 171.391 24.528 170.047 24.528C168.255 24.528 166.767 24.104 165.583 23.256C164.399 22.424 163.727 21.288 163.567 19.848H166.279C166.487 20.536 166.927 21.088 167.599 21.504C168.287 21.936 169.103 22.152 170.047 22.152C171.151 22.152 172.039 21.816 172.711 21.144C173.399 20.472 173.743 19.496 173.743 18.216V16.008C173.279 16.632 172.647 17.16 171.847 17.592C171.063 18.008 170.167 18.216 169.159 18.216C168.007 18.216 166.951 17.928 165.991 17.352C165.047 16.76 164.295 15.944 163.735 14.904C163.191 13.848 162.919 12.656 162.919 11.328C162.919 10 163.191 8.824 163.735 7.8C164.295 6.776 165.047 5.984 165.991 5.424C166.951 4.848 168.007 4.56 169.159 4.56ZM173.743 11.376C173.743 10.464 173.551 9.672 173.167 9C172.799 8.328 172.311 7.816 171.703 7.464C171.095 7.112 170.439 6.936 169.735 6.936C169.031 6.936 168.375 7.112 167.767 7.464C167.159 7.8 166.663 8.304 166.279 8.976C165.911 9.632 165.727 10.416 165.727 11.328C165.727 12.24 165.911 13.04 166.279 13.728C166.663 14.416 167.159 14.944 167.767 15.312C168.391 15.664 169.047 15.84 169.735 15.84C170.439 15.84 171.095 15.664 171.703 15.312C172.311 14.96 172.799 14.448 173.167 13.776C173.551 13.088 173.743 12.288 173.743 11.376ZM192.217 11.064C192.217 11.56 192.185 12.008 192.121 12.408H182.017C182.097 13.464 182.489 14.312 183.193 14.952C183.897 15.592 184.761 15.912 185.785 15.912C187.257 15.912 188.297 15.296 188.905 14.064H191.857C191.457 15.28 190.729 16.28 189.673 17.064C188.633 17.832 187.337 18.216 185.785 18.216C184.521 18.216 183.385 17.936 182.377 17.376C181.385 16.8 180.601 16 180.025 14.976C179.465 13.936 179.185 12.736 179.185 11.376C179.185 10.016 179.457 8.824 180.001 7.8C180.561 6.76 181.337 5.96 182.329 5.4C183.337 4.84 184.489 4.56 185.785 4.56C187.033 4.56 188.145 4.832 189.121 5.376C190.097 5.92 190.857 6.688 191.401 7.68C191.945 8.656 192.217 9.784 192.217 11.064ZM189.361 10.2C189.345 9.192 188.985 8.384 188.281 7.776C187.577 7.168 186.705 6.864 185.665 6.864C184.721 6.864 183.913 7.168 183.241 7.776C182.569 8.368 182.169 9.176 182.041 10.2H189.361Z" fill="black"/>
</svg>
